<?xml version="1.0" encoding="UTF-8"?>
<svg id="Layer_1" data-name="Layer 1" xmlns="http://www.w3.org/2000/svg" width="1265.23" height="1168" xmlns:xlink="http://www.w3.org/1999/xlink" viewBox="0 0 1265.23 1168">
  <defs>
    <style>
      .cls-1 {
        fill: url(#linear-gradient-2);
      }

      .cls-2 {
        fill: #0050b2;
      }

      .cls-3 {
        fill: #ffc200;
      }

      .cls-4 {
        fill: url(#linear-gradient);
      }
    </style>
    <linearGradient id="linear-gradient" x1="24.53" y1="830.49" x2="1240.21" y2="830.49" gradientUnits="userSpaceOnUse">
      <stop offset="0" stop-color="#4047ff"/>
      <stop offset="1" stop-color="#04006c"/>
    </linearGradient>
    <linearGradient id="linear-gradient-2" x1="104.08" y1="301.14" x2="1158.78" y2="301.14" xlink:href="#linear-gradient"/>
  </defs>
  <path class="cls-4" d="M1240.2,669.22c.1,1.56-.7,2.81-1.94,3.6-7.24,4.52-20.46,9.75-46.67,16.52-16.7,4.31-36.32,8.42-58.62,12.27,6.52-12.78,12.8-25.69,18.73-38.76-23.46-6.16-47.02-11.89-70.64-17.2-22.16,47.08-50.68,96.72-87.47,146.08-4.17,5.67-8.39,11.25-12.63,16.74-.46.59-.91,1.16-1.36,1.74-1.68,2.15-3.35,4.3-5.05,6.43-.54.69-1.09,1.35-1.64,2.04-1.6,2-3.2,4.01-4.81,5.99-3.22,3.97-6.48,7.87-9.74,11.74-3.28,3.89-6.57,7.75-9.88,11.54-.72.83-1.44,1.64-2.17,2.46-1.48,1.69-2.97,3.38-4.45,5.05-.46.51-.91,1.01-1.37,1.52-1.75,1.96-3.52,3.91-5.28,5.85-.47.52-.95,1.03-1.42,1.55-1.75,1.9-3.5,3.81-5.25,5.69-.27.29-.56.58-.83.87-1.95,2.09-3.9,4.17-5.86,6.22-1.16,1.22-2.32,2.41-3.48,3.62-1.08,1.12-2.16,2.25-3.23,3.36-1.19,1.23-2.38,2.42-3.57,3.64-1.06,1.07-2.12,2.16-3.18,3.21-1.13,1.14-2.25,2.25-3.38,3.38-1.13,1.12-2.24,2.24-3.36,3.34-.79.78-1.58,1.54-2.36,2.31-1.47,1.44-2.94,2.88-4.41,4.3-.15.15-.3.29-.46.44-2.1,2.03-4.19,4.04-6.29,6.03-.52.49-1.04.97-1.56,1.46-1.73,1.64-3.48,3.28-5.21,4.9-.12.1-.23.21-.34.3-2.14,1.99-4.27,3.96-6.42,5.91-.4.37-.81.74-1.22,1.11-1.84,1.68-3.68,3.34-5.53,4.99-.9.8-1.79,1.59-2.7,2.39-1.34,1.2-2.7,2.4-4.05,3.58-.97.86-1.95,1.7-2.92,2.55-1.27,1.11-2.55,2.22-3.81,3.32-.7.6-1.39,1.19-2.09,1.77-1.55,1.32-3.09,2.66-4.63,3.96-.69.58-1.36,1.14-2.04,1.71-1.56,1.31-3.11,2.63-4.66,3.91-.57.48-1.14.94-1.72,1.41-1.65,1.37-3.29,2.73-4.94,4.08-.75.62-1.5,1.22-2.25,1.82-1.46,1.2-2.93,2.39-4.39,3.56-.78.63-1.56,1.24-2.34,1.86-1.42,1.14-2.84,2.27-4.25,3.39-1.28,1.01-2.57,2.01-3.84,3.01-.91.71-1.81,1.42-2.71,2.13-1.21.92-2.39,1.83-3.59,2.75-.99.75-1.97,1.52-2.96,2.27-.92.71-1.83,1.39-2.75,2.09-1.24.94-2.49,1.89-3.73,2.82-.68.51-1.35,1.01-2.04,1.52-1.47,1.1-2.94,2.2-4.41,3.28-.61.45-1.21.88-1.81,1.33-1.52,1.11-3.04,2.22-4.55,3.32-1.01.74-2.02,1.46-3.03,2.19-1.11.79-2.21,1.6-3.31,2.39-.9.64-1.78,1.26-2.68,1.89-1.2.85-2.4,1.71-3.59,2.55-.87.62-1.72,1.21-2.6,1.81-1.21.85-2.43,1.71-3.64,2.54-.44.31-.88.62-1.33.92-1.61,1.11-3.21,2.21-4.8,3.3-.45.31-.9.61-1.35.91-1.57,1.08-3.15,2.16-4.71,3.2-.74.5-1.47.98-2.21,1.47-1.26.85-2.54,1.7-3.79,2.53-.87.58-1.72,1.15-2.6,1.72-1.11.73-2.21,1.46-3.31,2.19-.76.49-1.52.98-2.27,1.47-1.2.77-2.4,1.56-3.59,2.32-.45.29-.89.57-1.34.86-1.47.94-2.95,1.89-4.41,2.82-.65.41-1.29.81-1.94,1.23-1.23.77-2.47,1.56-3.69,2.33-1,.63-1.99,1.23-2.98,1.84-.86.55-1.74,1.1-2.61,1.63-.79.49-1.58.97-2.37,1.46-1.03.64-2.08,1.27-3.11,1.9-.61.37-1.21.74-1.81,1.1-1.2.74-2.39,1.46-3.57,2.17-.47.28-.91.55-1.37.82-1.3.77-2.6,1.56-3.88,2.32-.72.42-1.42.83-2.13,1.25-1.02.6-2.05,1.21-3.05,1.8-.52.3-1.02.59-1.54.89-1.17.69-2.35,1.37-3.51,2.05-.58.33-1.15.66-1.72.99-1.08.63-2.17,1.24-3.22,1.86-.39.23-.77.44-1.17.67-1.23.7-2.46,1.39-3.66,2.08-.29.17-.58.32-.86.48-1.28.74-2.57,1.45-3.81,2.16-.58.31-1.14.63-1.71.94-.96.54-1.92,1.08-2.86,1.6-.7.38-1.36.75-2.04,1.13-.8.43-1.61.88-2.39,1.31-.75.41-1.49.81-2.23,1.22-.69.38-1.39.76-2.07,1.14-.55.29-1.07.58-1.61.86-.86.47-1.72.93-2.57,1.39-2.27,1.22-4.45,2.38-6.59,3.51-.43.23-.87.47-1.3.69-.96.51-1.89,1-2.82,1.49-.29.16-.59.31-.87.46-1.09.57-2.15,1.13-3.19,1.67-.12.07-.25.14-.38.2-3.05,1.6-5.9,3.07-8.58,4.44-3.36,1.72-6.43,3.29-9.17,4.69-.1.05-.21.1-.3.15-52.98-27.09-228.6-115.11-362.16-296.57-26.48-35.53-48.64-71.18-67.26-105.93h0c-1.78-3.33-3.54-6.64-5.25-9.96-.03-.05-.05-.1-.08-.15-1.62-3.14-3.21-6.25-4.78-9.37-.14-.26-.27-.53-.41-.8-1.42-2.82-2.81-5.65-4.19-8.47-.25-.5-.5-1.01-.74-1.51-1.55-3.19-3.09-6.39-4.58-9.57-23.56,5.32-47.06,11.04-70.46,17.21,5.83,12.85,12.01,25.53,18.4,38.1-21.77-3.8-40.94-7.85-57.28-12.09-25.67-6.66-39.15-12.52-45.97-16.3-.86-.47-1.82-1.63-2.03-2.6-.29-1.38.15-2.74,1.19-3.67,3.54-3.16,11.22-4.33,22.1-8.74,39.43-11.75,79.14-22.27,119.04-31.59,0,0,0-.02,0-.02.81-.2,1.64-.36,2.45-.56,8.26-1.91,16.53-3.79,24.81-5.61,1.49-.32,2.98-.64,4.47-.96,7.52-1.63,15.03-3.21,22.56-4.76,1.03-.21,2.06-.44,3.09-.65.04,0,.09-.02.14-.03.47-.1.94-.19,1.41-.27,8.32-1.69,16.65-3.32,24.99-4.9,1.89-.36,3.78-.72,5.67-1.06,8.04-1.51,16.08-2.97,24.14-4.38.47-.08.93-.17,1.4-.25h.03c.11-.02.23-.04.33-.06,9.77-1.7,19.56-3.3,29.35-4.85,1.5-.24,3-.48,4.5-.73,9.41-1.47,18.82-2.86,28.23-4.19,1.77-.25,3.55-.51,5.32-.75,9.4-1.31,18.81-2.56,28.22-3.74,1.57-.2,3.15-.38,4.71-.58,9.74-1.2,19.49-2.33,29.25-3.39.71-.08,1.42-.15,2.13-.23,9.66-1.03,19.33-2,28.99-2.89,1.04-.1,2.08-.21,3.12-.29,9.65-.88,19.31-1.69,28.97-2.43,1.66-.13,3.32-.25,4.98-.38,9.45-.71,18.9-1.34,28.34-1.91,1.73-.11,3.48-.21,5.21-.3,9.57-.56,19.13-1.06,28.7-1.48.44-.02.88-.05,1.32-.07.06,0,.13,0,.19,0,1.09-.04,2.16-.07,3.24-.11,7.57-.32,15.14-.6,22.71-.82,1.52-.05,3.04-.11,4.55-.15,8.44-.24,16.88-.42,25.32-.55.77,0,1.56-.04,2.34-.06h.4c1.09-.02,2.18,0,3.26-.03,8.25-.11,16.5-.18,24.75-.19h1.32c8.55,0,17.08.07,25.63.17,1.06.02,2.11,0,3.17.03h.3c.82,0,1.64.04,2.46.06,9.45.14,18.9.34,28.35.62,1.65.05,3.29.11,4.94.16,9.7.3,19.39.67,29.1,1.11.92.04,1.85.1,2.78.14,9.63.45,19.27.98,28.9,1.57.88.05,1.75.1,2.64.15,9.7.61,19.41,1.3,29.12,2.05,1.63.13,3.25.25,4.87.37,9.44.75,18.88,1.57,28.3,2.45,1.74.17,3.49.33,5.23.5,9.51.91,19,1.87,28.5,2.92,1.38.16,2.76.31,4.15.47,9.96,1.12,19.91,2.28,29.86,3.55.15.02.29.04.45.06,9.88,1.26,19.76,2.61,29.62,4.01.88.13,1.76.23,2.64.35.17.03.34.05.51.08.44.06.87.14,1.31.2,8.31,1.2,16.62,2.46,24.93,3.76,1.91.29,3.83.61,5.75.91,8.04,1.28,16.06,2.61,24.09,3.99.42.07.85.14,1.27.22.23.04.44.07.67.11.02,0,.05,0,.08.02,8.45,1.46,16.88,3,25.3,4.57,1.99.36,3.98.74,5.97,1.11,8.27,1.57,16.54,3.18,24.79,4.84.33.07.66.13.99.2.18.04.35.07.53.11.96.2,1.93.41,2.9.61,7.4,1.51,14.79,3.07,22.18,4.66,1.82.39,3.64.78,5.46,1.18,8.12,1.77,16.23,3.61,24.33,5.48.75.18,1.52.33,2.27.51,0,0,0,0,0,0,0,0,0,0,0,.02,40.35,9.39,80.48,20,120.35,31.87,10.45,4.03,18.58,5.72,22.1,8.6.85.7,1.45,1.7,1.53,2.79Z"/>
  <path class="cls-1" d="M1158.78,381.06c-1.2,8.15-2.78,19.05-5.05,32.28-.9,5.29-1.92,10.96-3.06,16.96-1.36,7.18-2.92,14.88-4.68,23.01-.53,2.45-1.08,4.94-1.65,7.47-4.66,20.66-10.65,43.94-18.46,69.17h0c-182.03-45.23-368.74-65.04-554.86-59.47-.58.02-1.17.03-1.75.04-9.84.3-19.68.7-29.51,1.14-.54.03-1.07.04-1.6.07-8.96.41-17.91.9-26.86,1.44-1.41.08-2.82.14-4.23.23-8.93.55-17.86,1.19-26.78,1.84-1.43.11-2.86.19-4.29.3-8.24.63-16.48,1.35-24.73,2.08-2.11.2-4.21.34-6.32.54-8.2.75-16.4,1.6-24.59,2.45-2.14.22-4.28.41-6.43.64-7.55.81-15.08,1.72-22.62,2.61-2.78.32-5.58.62-8.36.96-7.44.91-14.88,1.92-22.32,2.91-2.87.38-5.74.73-8.61,1.13-6.94.96-13.87,2.01-20.8,3.04-3.36.5-6.73.95-10.08,1.47-7.89,1.22-15.77,2.52-23.64,3.82-2.39.4-4.79.75-7.18,1.17-7.65,1.29-15.3,2.69-22.94,4.07-2.61.47-5.22.91-7.83,1.39-7.48,1.38-14.94,2.85-22.4,4.32-2.76.55-5.54,1.05-8.29,1.61-7.05,1.42-14.07,2.92-21.1,4.41-3.18.68-6.36,1.3-9.54,2-7.71,1.67-15.41,3.43-23.11,5.19-2.48.57-4.96,1.11-7.44,1.68-7.58,1.77-15.14,3.63-22.71,5.49-2.61.64-5.22,1.23-7.83,1.88-21.35-68.8-29.21-123.18-33.04-149.33l79.78-42.79v-59.36l79.06-42.83v-59.31c109.39-52.16,229.89-86.46,368.5-104.87h.05c.27.04.54.08.81.12,8.39,1.12,16.71,2.29,24.96,3.53.82.12,1.63.26,2.45.38,7.68,1.17,15.34,2.36,22.91,3.64.25.04.49.09.74.13,41.66,6.98,81.67,15.51,120.21,25.68,2.25.59,4.47,1.23,6.71,1.83,5.48,1.48,10.97,2.95,16.39,4.49.6.17,1.18.35,1.77.53,7.04,2.01,14.03,4.07,20.97,6.19,1.69.52,3.33,1.07,5.02,1.59,5.82,1.81,11.63,3.64,17.4,5.53,1.86.62,3.68,1.26,5.54,1.88,12.93,4.33,25.73,8.83,38.34,13.56,3.63,1.36,7.2,2.79,10.81,4.19,3.56,1.38,7.14,2.72,10.68,4.15,21.34,8.53,42.23,17.68,62.73,27.46v59.31l79.07,42.83v59.36l79.78,42.79Z"/>
  <path class="cls-3" d="M1264.74,591.39c-.05-18.52-18.31-27.86-69.82-42.94,15.54-50.75,27.1-103.33,34.6-157.63l6.79-49.1-85.91-46.08v-59.15l-79.06-42.83v-61.86l-40.55-19.32C915.54,57.53,788.11,20.83,641.13,1.29l-9.6-1.29-9.6,1.29c-146.98,19.53-274.43,56.23-389.67,111.18l-40.55,19.32v61.86l-79.06,42.83v59.15l-85.91,46.08,6.79,49.1c7.53,54.46,19.13,107.2,34.74,158.09C14.5,564.68.06,572.94,0,591.39v81.41s.04,0,.06-.02c0,.24-.06.48-.06.72,0,19.93,53.62,38.22,142.94,52.53,20.45,37.37,43.44,73.42,69.03,108.05,96.65,130.76,227.11,237.73,387.75,318.02l31.8,15.91,31.8-15.91c160.64-80.29,291.1-187.26,387.75-318.02,25.52-34.53,48.46-70.48,68.88-107.75,90.44-14.35,144.79-32.75,144.79-52.82,0-.24-.05-.48-.07-.72.02,0,.04,0,.07.02v-81.41ZM183.86,338.27v-59.36l79.06-42.83v-59.31c109.39-52.16,229.89-86.46,368.5-104.87h.05c.27.04.54.08.81.12,8.39,1.12,16.71,2.29,24.96,3.53.82.12,1.63.26,2.45.38,7.68,1.17,15.34,2.36,22.91,3.64.25.04.49.09.74.13,41.66,6.98,81.67,15.51,120.21,25.68,2.25.59,4.47,1.23,6.71,1.83,5.48,1.48,10.97,2.95,16.39,4.49.6.17,1.18.35,1.77.53,7.04,2.01,14.03,4.07,20.97,6.19,1.69.52,3.33,1.07,5.02,1.59,5.82,1.81,11.63,3.64,17.4,5.53,1.86.62,3.68,1.26,5.54,1.88,12.93,4.33,25.73,8.83,38.34,13.56,3.63,1.36,7.2,2.79,10.81,4.19,3.56,1.38,7.14,2.72,10.68,4.15,21.34,8.53,42.23,17.68,62.73,27.46v59.31l79.07,42.83v59.36l79.78,42.79c-1.2,8.15-2.78,19.05-5.05,32.28-.9,5.29-1.92,10.96-3.06,16.96-1.36,7.18-2.92,14.88-4.68,23.01-.53,2.45-1.08,4.94-1.65,7.47-4.66,20.66-10.65,43.94-18.46,69.17h0c-182.03-45.23-368.74-65.04-554.86-59.47-.58.02-1.17.03-1.75.04-9.84.3-19.68.7-29.51,1.14-.54.03-1.07.04-1.6.07-8.96.41-17.91.9-26.86,1.44-1.41.08-2.82.14-4.23.23-8.93.55-17.86,1.19-26.78,1.84-1.43.11-2.86.19-4.29.3-8.24.63-16.48,1.35-24.73,2.08-2.11.2-4.21.34-6.32.54-8.2.75-16.4,1.6-24.59,2.45-2.14.22-4.28.41-6.43.64-7.55.81-15.08,1.72-22.62,2.61-2.78.32-5.58.62-8.36.96-7.44.91-14.88,1.92-22.32,2.91-2.87.38-5.74.73-8.61,1.13-6.94.96-13.87,2.01-20.8,3.04-3.36.5-6.73.95-10.08,1.47-7.89,1.22-15.77,2.52-23.64,3.82-2.39.4-4.79.75-7.18,1.17-7.65,1.29-15.3,2.69-22.94,4.07-2.61.47-5.22.91-7.83,1.39-7.48,1.38-14.94,2.85-22.4,4.32-2.76.55-5.54,1.05-8.29,1.61-7.05,1.42-14.07,2.92-21.1,4.41-3.18.68-6.36,1.3-9.54,2-7.71,1.67-15.41,3.43-23.11,5.19-2.48.57-4.96,1.11-7.44,1.68-7.58,1.77-15.14,3.63-22.71,5.49-2.61.64-5.22,1.23-7.83,1.88-21.35-68.8-29.21-123.18-33.04-149.33l79.78-42.79ZM1238.26,672.82c-7.24,4.52-20.46,9.75-46.67,16.52-16.7,4.31-36.32,8.42-58.62,12.27,6.52-12.78,12.8-25.69,18.73-38.76-23.46-6.16-47.02-11.89-70.64-17.2-22.16,47.08-50.68,96.72-87.47,146.08-4.17,5.67-8.39,11.25-12.63,16.74-.46.59-.91,1.16-1.36,1.74-1.68,2.15-3.35,4.3-5.05,6.43-.54.69-1.09,1.35-1.64,2.04-1.6,2-3.2,4.01-4.81,5.99-3.22,3.97-6.48,7.87-9.74,11.74-3.28,3.89-6.57,7.75-9.88,11.54-.72.83-1.44,1.64-2.17,2.46-1.48,1.69-2.97,3.38-4.45,5.05-.46.51-.91,1.01-1.37,1.52-1.75,1.96-3.52,3.91-5.28,5.85-.47.52-.95,1.03-1.42,1.55-1.75,1.9-3.5,3.81-5.25,5.69-.27.29-.56.58-.83.87-1.95,2.09-3.9,4.17-5.86,6.22-1.16,1.22-2.32,2.41-3.48,3.62-1.08,1.12-2.16,2.25-3.23,3.36-1.19,1.23-2.38,2.42-3.57,3.64-1.06,1.07-2.12,2.16-3.18,3.21-1.13,1.14-2.25,2.25-3.38,3.38-1.13,1.12-2.24,2.24-3.36,3.34-.79.78-1.58,1.54-2.36,2.31-1.47,1.44-2.94,2.88-4.41,4.3-.15.15-.3.29-.46.44-2.1,2.03-4.19,4.04-6.29,6.03-.52.49-1.04.97-1.56,1.46-1.73,1.64-3.48,3.28-5.21,4.9-.12.1-.23.21-.34.3-2.14,1.99-4.27,3.96-6.42,5.91-.4.37-.81.74-1.22,1.11-1.84,1.68-3.68,3.34-5.53,4.99-.9.8-1.79,1.59-2.7,2.39-1.34,1.2-2.7,2.4-4.05,3.58-.97.86-1.95,1.7-2.92,2.55-1.27,1.11-2.55,2.22-3.81,3.32-.7.6-1.39,1.19-2.09,1.77-1.55,1.32-3.09,2.66-4.63,3.96-.69.58-1.36,1.14-2.04,1.71-1.56,1.31-3.11,2.63-4.66,3.91-.57.48-1.14.94-1.72,1.41-1.65,1.37-3.29,2.73-4.94,4.08-.75.62-1.5,1.22-2.25,1.82-1.46,1.2-2.93,2.39-4.39,3.56-.78.63-1.56,1.24-2.34,1.86-1.42,1.14-2.84,2.27-4.25,3.39-1.28,1.01-2.57,2.01-3.84,3.01-.91.71-1.81,1.42-2.71,2.13-1.21.92-2.39,1.83-3.59,2.75-.99.75-1.97,1.52-2.96,2.27-.92.71-1.83,1.39-2.75,2.09-1.24.94-2.49,1.89-3.73,2.82-.68.51-1.35,1.01-2.04,1.52-1.47,1.1-2.94,2.2-4.41,3.28-.61.45-1.21.88-1.81,1.33-1.52,1.11-3.04,2.22-4.55,3.32-1.01.74-2.02,1.46-3.03,2.19-1.11.79-2.21,1.6-3.31,2.39-.9.64-1.78,1.26-2.68,1.89-1.2.85-2.4,1.71-3.59,2.55-.87.62-1.72,1.21-2.6,1.81-1.21.85-2.43,1.71-3.64,2.54-.44.31-.88.62-1.33.92-1.61,1.11-3.21,2.21-4.8,3.3-.45.31-.9.61-1.35.91-1.57,1.08-3.15,2.16-4.71,3.2-.74.5-1.47.98-2.21,1.47-1.26.85-2.54,1.7-3.79,2.53-.87.58-1.72,1.15-2.6,1.72-1.11.73-2.21,1.46-3.31,2.19-.76.49-1.52.98-2.27,1.47-1.2.77-2.4,1.56-3.59,2.32-.45.29-.89.57-1.34.86-1.47.94-2.95,1.89-4.41,2.82-.65.41-1.29.81-1.94,1.23-1.23.77-2.47,1.56-3.69,2.33-1,.63-1.99,1.23-2.98,1.84-.86.55-1.74,1.1-2.61,1.63-.79.49-1.58.97-2.37,1.46-1.03.64-2.08,1.27-3.11,1.9-.61.37-1.21.74-1.81,1.1-1.2.74-2.39,1.46-3.57,2.17-.47.28-.91.55-1.37.82-1.3.77-2.6,1.56-3.88,2.32-.72.42-1.42.83-2.13,1.25-1.02.6-2.05,1.21-3.05,1.8-.52.3-1.02.59-1.54.89-1.17.69-2.35,1.37-3.51,2.05-.58.33-1.15.66-1.72.99-1.08.63-2.17,1.24-3.22,1.86-.39.23-.77.44-1.17.67-1.23.7-2.46,1.39-3.66,2.08-.29.17-.58.32-.86.48-1.28.74-2.57,1.45-3.81,2.16-.58.31-1.14.63-1.71.94-.96.54-1.92,1.08-2.86,1.6-.7.38-1.36.75-2.04,1.13-.8.43-1.61.88-2.39,1.31-.75.41-1.49.81-2.23,1.22-.69.38-1.39.76-2.07,1.14-.55.29-1.07.58-1.61.86-.86.47-1.72.93-2.57,1.39-2.27,1.22-4.45,2.38-6.59,3.51-.43.23-.87.47-1.3.69-.96.51-1.89,1-2.82,1.49-.29.16-.59.31-.87.46-1.09.57-2.15,1.13-3.19,1.67-.12.07-.25.14-.38.2-3.05,1.6-5.9,3.07-8.58,4.44-3.36,1.72-6.43,3.29-9.17,4.69-.1.05-.21.1-.3.15-52.98-27.09-228.6-115.11-362.16-296.57-26.48-35.53-48.64-71.18-67.26-105.93h0c-1.78-3.33-3.54-6.64-5.25-9.96-.03-.05-.05-.1-.08-.15-1.62-3.14-3.21-6.25-4.78-9.37-.14-.26-.27-.53-.41-.8-1.42-2.82-2.81-5.65-4.19-8.47-.25-.5-.5-1.01-.74-1.51-1.55-3.19-3.09-6.39-4.58-9.57-23.56,5.32-47.06,11.04-70.46,17.21,5.83,12.85,12.01,25.53,18.4,38.1-21.77-3.8-40.94-7.85-57.28-12.09-25.67-6.66-39.15-12.52-45.97-16.3-.86-.47-1.82-1.63-2.03-2.6-.29-1.38.15-2.74,1.19-3.67,3.54-3.16,11.22-4.33,22.1-8.74,39.43-11.75,79.14-22.27,119.04-31.59,0,0,0-.02,0-.02.81-.2,1.64-.36,2.45-.56,8.26-1.91,16.53-3.79,24.81-5.61,1.49-.32,2.98-.64,4.47-.96,7.52-1.63,15.03-3.21,22.56-4.76,1.03-.21,2.06-.44,3.09-.65.04,0,.09-.02.14-.03.47-.1.94-.19,1.41-.27,8.32-1.69,16.65-3.32,24.99-4.9,1.89-.36,3.78-.72,5.67-1.06,8.04-1.51,16.08-2.97,24.14-4.38.47-.08.93-.17,1.4-.25h.03c.11-.02.23-.04.33-.06,9.77-1.7,19.56-3.3,29.35-4.85,1.5-.24,3-.48,4.5-.73,9.41-1.47,18.82-2.86,28.23-4.19,1.77-.25,3.55-.51,5.32-.75,9.4-1.31,18.81-2.56,28.22-3.74,1.57-.2,3.15-.38,4.71-.58,9.74-1.2,19.49-2.33,29.25-3.39.71-.08,1.42-.15,2.13-.23,9.66-1.03,19.33-2,28.99-2.89,1.04-.1,2.08-.21,3.12-.29,9.65-.88,19.31-1.69,28.97-2.43,1.66-.13,3.32-.25,4.98-.38,9.45-.71,18.9-1.34,28.34-1.91,1.73-.11,3.48-.21,5.21-.3,9.57-.56,19.13-1.06,28.7-1.48.44-.02.88-.05,1.32-.07.06,0,.13,0,.19,0,1.09-.04,2.16-.07,3.24-.11,7.57-.32,15.14-.6,22.71-.82,1.52-.05,3.04-.11,4.55-.15,8.44-.24,16.88-.42,25.32-.55.77,0,1.56-.04,2.34-.06h.4c1.09-.02,2.18,0,3.26-.03,8.25-.11,16.5-.18,24.75-.19h1.32c8.55,0,17.08.07,25.63.17,1.06.02,2.11,0,3.17.03h.3c.82,0,1.64.04,2.46.06,9.45.14,18.9.34,28.35.62,1.65.05,3.29.11,4.94.16,9.7.3,19.39.67,29.1,1.11.92.04,1.85.1,2.78.14,9.63.45,19.27.98,28.9,1.57.88.05,1.75.1,2.64.15,9.7.61,19.41,1.3,29.12,2.05,1.63.13,3.25.25,4.87.37,9.44.75,18.88,1.57,28.3,2.45,1.74.17,3.49.33,5.23.5,9.51.91,19,1.87,28.5,2.92,1.38.16,2.76.31,4.15.47,9.96,1.12,19.91,2.28,29.86,3.55.15.02.29.04.45.06,9.88,1.26,19.76,2.61,29.62,4.01.88.13,1.76.23,2.64.35.17.03.34.05.51.08.44.06.87.14,1.31.2,8.31,1.2,16.62,2.46,24.93,3.76,1.91.29,3.83.61,5.75.91,8.04,1.28,16.06,2.61,24.09,3.99.42.07.85.14,1.27.22.23.04.44.07.67.11.02,0,.05,0,.08.02,8.45,1.46,16.88,3,25.3,4.57,1.99.36,3.98.74,5.97,1.11,8.27,1.57,16.54,3.18,24.79,4.84.33.07.66.13.99.2.18.04.35.07.53.11.96.2,1.93.41,2.9.61,7.4,1.51,14.79,3.07,22.18,4.66,1.82.39,3.64.78,5.46,1.18,8.12,1.77,16.23,3.61,24.33,5.48.75.18,1.52.33,2.27.51,0,0,0,0,0,0,0,0,0,0,0,.02,40.35,9.39,80.48,20,120.35,31.87,10.45,4.03,18.58,5.72,22.1,8.6.85.7,1.45,1.7,1.53,2.79.1,1.56-.7,2.81-1.94,3.6Z"/>
  <path class="cls-2" d="M204.3,601.55c-5.1-23.81-10.2-47.62-15.09-71.43,4.04-.85,8.29-1.7,12.33-2.55,3.19,15.52,6.17,31.04,9.35,46.77,2.98-16.79,6.17-33.59,9.14-50.38,3.83-.85,7.44-1.49,11.27-2.34,2.98,15.52,6.17,31.25,9.14,46.77,3.19-16.79,6.38-33.59,9.35-50.38,4.04-.85,7.87-1.49,11.91-2.13-5.1,25.72-10.2,51.66-15.31,77.38-4.04.85-8.08,1.49-12.12,2.34-2.98-15.31-5.95-30.4-8.93-45.71-2.98,16.37-5.95,32.95-8.93,49.32-4.25.64-8.08,1.49-12.12,2.34"/>
  <path class="cls-2" d="M278.49,512.68c5.31-.85,10.84-1.7,16.16-2.55,5.1,24.02,9.99,48.26,15.09,72.28-4.04.64-8.29,1.28-12.33,1.91-.85-4.46-1.7-8.93-2.55-13.61-5.53.85-11.05,1.7-16.58,2.76-.85,4.89-1.7,9.57-2.55,14.46-3.83.64-7.87,1.28-11.91,2.13,4.68-25.72,9.57-51.66,14.67-77.38M280.19,561.58c4.04-.64,8.08-1.28,12.12-2.13-2.13-10.2-4.04-20.62-6.17-30.83-1.91,11.05-3.83,22.11-5.95,32.95"/>
  <path class="cls-2" d="M331.85,579.01c-4.04.64-8.08,1.28-12.12,1.7v-74.83c3.83-.64,7.65-1.06,11.27-1.7,4.04-.64,7.65-.64,11.05,0s6.17,1.7,8.72,3.4c2.55,1.7,4.25,3.83,5.74,6.38,1.28,2.55,2.13,5.74,2.13,9.35,0,4.46-.85,8.5-2.76,11.91-1.91,3.61-4.46,6.59-7.65,9.35,4.46,9.99,8.72,19.98,13.18,29.98-4.46.64-8.93,1.28-13.39,1.7-3.4-8.29-6.8-16.58-10.2-24.66-.64.43-1.49.85-2.13,1.06-.64.43-1.49.64-2.13,1.06-.43.21-.85.43-1.28.64-.43,8.5-.43,16.58-.43,24.66M346.52,525.44c0-3.19-1.28-5.74-3.83-7.65s-6.17-2.55-10.84-1.91v26.57c.64-.21,1.28-.64,1.7-.85,4.04-1.91,7.23-4.25,9.35-7.02,2.55-2.76,3.61-5.74,3.61-9.14"/>
  <path class="cls-2" d="M372.46,573.7v-74.83c3.83-.43,7.87-1.06,11.91-1.49,6.38,14.67,12.97,29.34,19.35,44.22v-46.35c3.83-.43,7.87-.85,11.69-1.28v74.83c-3.83.43-7.87.85-11.91,1.28-6.38-14.88-12.97-29.55-19.35-44.22v46.35c-4.04.43-7.87,1.06-11.69,1.49"/>
  <path class="cls-2" d="M430.92,567.32v-74.83c11.91-1.28,23.81-2.13,35.5-2.98-.85,3.83-1.49,7.87-2.34,11.69-7.02.64-14.03,1.28-21.26,1.7v18.71c5.95-.43,11.69-1.06,17.65-1.49v11.91c-5.95.43-11.69,1.06-17.65,1.49v21.05c7.87-.64,15.73-1.28,23.6-1.91v11.48c-11.48.85-23.39,2.13-35.5,3.19"/>
  <path class="cls-2" d="M491.72,562.43c-4.04.21-8.08.64-12.12.85v-74.83c3.83-.21,7.65-.43,11.48-.85,4.04-.21,7.65,0,11.05.85s6.38,2.13,8.72,4.04c2.55,1.91,4.25,4.25,5.74,7.02,1.28,2.76,2.13,5.95,2.13,9.57,0,4.46-.85,8.5-2.76,11.69-1.91,3.4-4.46,6.38-7.65,8.72,4.46,10.2,8.93,20.62,13.18,31.04-4.46.21-8.93.43-13.39.64-3.4-8.5-7.02-17.01-10.42-25.51-.64.21-1.49.64-2.13,1.06-.64.21-1.49.64-2.13.85-.43.21-.85.21-1.28.43l-.43,24.45h0ZM506.39,509.71c0-3.19-1.28-5.95-3.83-7.87s-6.17-2.76-11.05-2.76v26.57c.64-.21,1.28-.43,1.91-.85,4.04-1.7,7.23-3.83,9.57-6.38,2.34-2.13,3.4-5.1,3.4-8.72"/>
  <path class="cls-2" d="M600.57,533.52c0,3.61-.85,6.8-2.34,9.78s-3.61,5.53-6.38,7.87-5.95,4.04-9.99,5.31c-3.83,1.28-8.08,2.13-12.76,2.13-3.61,0-7.02.21-10.42.21v-74.83c3.4,0,6.8-.21,10.2-.21,8.08-.21,14.46,1.49,19.35,4.89,4.89,3.61,7.23,8.29,7.23,14.24,0,2.55-.64,4.89-1.91,7.23-1.28,2.55-2.98,4.46-5.1,6.38,3.83,1.28,6.59,3.19,8.72,6.17,2.34,3.19,3.4,6.8,3.4,10.84M583.77,504.39c0-2.76-1.28-4.89-3.61-6.38s-5.53-2.34-9.57-2.55v20.62c.64-.21,1.28-.21,1.91-.43,3.61-.85,6.38-2.34,8.29-4.25,2.13-2.13,2.98-4.46,2.98-7.02M574.21,526.29c-1.28.21-2.55.64-3.61,1.06v20.2c5.1,0,9.35-1.49,12.76-4.04,3.4-2.55,5.1-5.74,5.1-9.57,0-3.4-1.28-5.74-4.25-7.02-2.55-1.49-5.95-1.7-9.99-.64"/>
  <path class="cls-2" d="M623.95,557.96h-12.12v-74.83h11.48c4.04,0,7.65.43,11.05,1.49s6.38,2.55,8.72,4.68c2.55,1.91,4.25,4.46,5.74,7.23,1.28,2.76,2.13,6.17,2.13,9.78,0,4.46-.85,8.29-2.76,11.48s-4.46,5.95-7.65,8.29c4.46,10.63,8.93,21.26,13.18,31.68h-13.39c-3.4-8.72-7.02-17.43-10.42-26.15-.64.21-1.49.64-2.13.85s-1.49.43-2.13.64c-.43,0-.85.21-1.28.43l-.43,24.45h0ZM638.62,506.3c0-3.19-1.28-5.95-3.83-8.08-2.55-2.13-6.17-3.19-11.05-3.4v26.57c.64-.21,1.28-.43,1.91-.64,4.04-1.49,7.23-3.4,9.57-5.74s3.4-5.31,3.4-8.72"/>
  <path class="cls-2" d="M684.54,559.66c-7.23-.21-12.97-3.61-17.22-9.99-4.25-6.38-6.38-16.16-6.38-28.91s2.13-22.32,6.38-28.7c4.25-6.38,9.99-9.35,17.22-9.14s12.97,3.61,17.22,10.2c4.25,6.59,6.38,16.37,6.38,29.13s-2.13,22.32-6.38,28.49c-4.04,6.17-9.78,9.14-17.22,8.93M684.54,547.97c3.61,0,6.38-2.13,8.29-6.38,2.13-4.46,2.98-11.05,2.98-19.98s-1.06-15.52-2.98-20.2c-2.13-4.46-4.89-6.8-8.29-7.02-3.61,0-6.38,2.13-8.29,6.38-2.13,4.46-2.98,11.05-2.98,19.98s1.06,15.52,2.98,20.2c2.13,4.68,4.89,7.02,8.29,7.02"/>
  <path class="cls-2" d="M720.26,503.54c0-2.76.43-5.31,1.49-7.65s2.34-4.25,4.04-5.95c1.7-1.49,3.61-2.76,5.95-3.61,2.34-.85,4.68-1.28,7.23-1.06,4.46.21,8.5,1.7,11.69,4.25,3.4,2.55,5.74,6.8,7.65,12.33-3.4,1.91-7.02,3.83-10.42,5.53-.85-3.19-2.13-5.53-3.61-7.65s-3.4-2.98-5.95-3.19c-1.91,0-3.4.43-4.46,1.7-1.06,1.28-1.7,2.76-1.7,4.68s.64,3.83,1.7,5.95c1.28,1.91,2.98,3.83,5.31,5.74,2.55,2.13,5.31,4.25,8.08,6.38,3.83,2.98,6.59,6.38,8.5,9.78,1.91,3.4,2.76,7.23,2.76,11.27,0,2.98-.43,5.53-1.49,8.08-1.06,2.55-2.55,4.46-4.46,6.38-1.91,1.7-4.04,2.98-6.38,3.83s-5.1,1.28-7.65,1.28c-5.1-.21-9.35-1.91-13.18-4.89-3.83-2.98-6.38-7.65-8.29-13.61,3.4-1.91,6.8-3.83,10.2-5.53,1.06,3.83,2.55,6.8,4.25,8.93,1.91,2.34,4.25,3.4,7.44,3.61,2.34,0,4.25-.64,5.74-2.13s2.13-3.4,2.13-5.53c0-2.34-.64-4.46-2.13-6.59-1.28-1.91-3.19-3.83-5.31-5.74-2.98-2.34-5.95-4.68-8.93-7.02-3.83-2.98-6.38-6.17-7.87-9.57-1.7-3.4-2.34-6.8-2.34-9.99"/>
  <path class="cls-2" d="M771.28,563.28c-1.7,0-3.19-.85-4.46-2.13s-1.91-2.76-1.91-4.68c0-1.7.64-3.19,1.91-4.25,1.28-1.28,2.76-1.7,4.46-1.49,1.7,0,3.19.85,4.46,2.13s1.91,2.76,1.91,4.68c0,1.7-.64,3.19-1.91,4.25-1.28,1.06-2.76,1.7-4.46,1.49"/>
  <path class="cls-2" d="M827.4,568.38c-7.23-.64-12.97-4.46-17.22-11.05-4.25-6.8-6.38-16.58-6.38-29.34s2.13-22.32,6.38-28.27c4.25-5.95,10.2-8.72,17.65-7.87,4.89.43,9.14,2.34,12.76,5.74,3.61,3.19,6.38,7.87,8.08,13.82-3.61,1.91-7.23,3.83-10.84,5.74-.85-4.25-2.34-7.65-3.83-9.99-1.7-2.34-3.83-3.61-6.17-3.83-3.61-.21-6.38,1.7-8.5,5.95-2.13,4.25-3.19,10.84-3.19,19.77s1.06,15.73,3.19,20.41,4.89,7.23,8.29,7.44c3.19.21,5.74-1.06,7.87-4.04,2.13-2.98,3.4-7.65,3.83-14.24-3.83-.43-7.65-.85-11.48-1.06v-11.91c7.87.85,15.73,1.49,23.81,2.55v5.1c0,12.76-2.13,21.9-6.38,27.85-4.68,5.31-10.42,7.87-17.86,7.23"/>
  <path class="cls-2" d="M874.81,497.59c5.31.64,10.84,1.28,16.16,1.91,5.1,25.51,9.99,51.02,15.09,76.75-4.04-.64-8.29-1.06-12.33-1.49-.85-4.89-1.7-9.57-2.55-14.24-5.53-.64-11.05-1.28-16.58-2.13-.85,4.46-1.7,9.14-2.55,13.61-4.04-.43-7.87-.85-11.91-1.28,4.68-24.45,9.57-48.68,14.67-73.13M876.51,547.12c4.04.43,8.08,1.06,12.12,1.49-2.13-10.84-4.04-21.68-6.17-32.74-1.91,10.42-3.83,20.83-5.95,31.25"/>
  <path class="cls-2" d="M944.97,581.99c-1.28-.21-2.55-.43-3.61-.64-4.04-17.22-8.08-34.65-12.33-51.87v49.96c-3.83-.64-7.87-1.06-11.69-1.7v-74.83c5.1.64,10.2,1.49,15.09,2.13,3.61,15.09,7.23,30.19,10.84,45.07,3.61-14.03,7.23-27.85,10.84-41.88,5.1.85,9.99,1.49,14.88,2.34v74.83c-3.83-.64-7.65-1.28-11.69-1.91v-49.96c-4.04,16.37-8.29,32.53-12.33,48.47"/>
  <path class="cls-2" d="M984.3,588.36v-74.83c11.69,2.13,23.6,4.25,35.29,6.38-.85,3.83-1.49,7.44-2.34,11.05-7.02-1.28-14.03-2.55-21.05-3.83v18.71c5.74,1.06,11.69,2.13,17.43,3.19v11.91c-5.74-1.06-11.69-2.13-17.43-3.19v21.05c7.65,1.28,15.52,2.76,23.39,4.25v11.48c-11.48-1.91-23.39-4.04-35.29-6.17"/>
  <path class="cls-2" d="M1030.22,540.53c0-2.76.43-5.1,1.49-7.44,1.06-2.13,2.34-3.83,3.83-5.31,1.7-1.28,3.61-2.34,5.95-2.76,2.34-.43,4.68-.43,7.23,0,4.46.85,8.29,2.98,11.48,6.17s5.74,7.65,7.44,13.61c-3.4,1.28-6.8,2.55-10.2,4.04-.85-3.19-1.91-5.95-3.4-8.08-1.49-2.13-3.4-3.4-5.95-4.04-1.91-.43-3.4,0-4.46,1.06s-1.7,2.55-1.7,4.25c0,1.91.64,4.04,1.7,6.17s2.98,4.25,5.31,6.59c2.55,2.55,5.31,5.1,7.87,7.65,3.83,3.61,6.59,7.23,8.5,11.05,1.91,3.61,2.76,7.65,2.76,11.48,0,2.98-.43,5.53-1.49,7.87s-2.55,4.04-4.25,5.53c-1.91,1.49-3.83,2.55-6.38,2.98-2.55.64-5.1.64-7.65,0-5.1-1.06-9.35-3.4-12.97-6.8-3.61-3.61-6.38-8.5-8.29-14.88,3.4-1.28,6.59-2.76,9.99-4.04,1.06,3.83,2.55,7.23,4.25,9.57,1.7,2.55,4.25,4.04,7.23,4.68,2.34.43,4.25,0,5.74-1.28s2.13-2.98,2.13-5.1c0-2.34-.64-4.68-2.13-6.8-1.28-2.13-3.19-4.46-5.31-6.59-2.98-2.76-5.95-5.53-8.72-8.5-3.83-3.61-6.38-7.23-7.87-10.63-1.49-3.83-2.13-7.23-2.13-10.42"/>
  <path class="cls-3" d="M847.48,714.84c-22.6,26.05-59.61,65.79-99.66,96.74v-213.01c-26.3-1.49-52.62-2.49-78.95-2.96v368.16c125.59-64.66,269.72-217.32,327.02-335.91-25.5-4.6-51.05-8.75-76.67-12.38-16.86,31.1-42.71,65.8-71.74,99.35h0Z"/>
  <path class="cls-3" d="M747.82,291.18c39.54,0,167.44,40.44,167.44,91.52,0,18.41-16.25,44.79-66.84,71.36l-31.94,17.13c64.71,5.84,129.21,14.77,193.28,26.79-9.25-13.9-24.05-25.21-44.54-35.07,28.61-31.68,34.7-54.73,34.7-82.6,0-39.46-32.6-74.58-80.01-104.75-28.64-18.23-72.48-40.3-136.42-58.12-36.78-9.88-75.15-15.89-114.62-17.6v263.43c26.33.47,52.65,1.44,78.95,2.93v-175Z"/>
  <path class="cls-3" d="M594.35,463.26V199.82c-27.03,2.63-53.75,7.29-81.02,14.3l1.92,252.12c26.35-1.51,52.72-2.5,79.1-2.99h0Z"/>
  <path class="cls-3" d="M294.79,490.95c-14.51-42.77-26.94-88.09-37.61-136.13-20.85,18.74-41.57,39.73-61.77,63.25,7.32,30.27,15.42,59.18,24.33,86.85,24.95-5.14,49.97-9.78,75.05-13.98h0Z"/>
  <path class="cls-3" d="M449.79,471.09c-13.7-72.46-22.82-148.29-27.33-224.23-25.09,11.27-51.7,25.23-78.98,42.51,5.04,67.03,13.06,130.2,24.53,190.7,27.21-3.55,54.48-6.54,81.78-8.99h0Z"/>
  <path class="cls-3" d="M517,696.71l-3.41,1.99c-12.22-30.88-23.24-63.61-33.09-97.71-27.22,2.03-54.4,4.59-81.54,7.7,7.72,26.12,16.21,51.88,25.62,77.32l-25.48,14.76c-19.15-26.82-36.36-55.35-51.96-85.47-26.22,3.69-52.38,7.92-78.48,12.64,32.67,67.45,72.28,126.31,119.7,178.91l70.2-41.97c34.39,71.66,82.71,142.37,135.79,198.9v-368.1c-26.04.48-52.08,1.5-78.09,2.97l.75,98.07Z"/>
</svg>